<?xml version="1.0" standalone="no"?>
<!DOCTYPE svg PUBLIC "-//W3C//DTD SVG 20010904//EN"
 "http://www.w3.org/TR/2001/REC-SVG-20010904/DTD/svg10.dtd">
<svg version="1.0" xmlns="http://www.w3.org/2000/svg"
 width="3248.000000pt" height="3248.000000pt" viewBox="0 0 3248.000000 3248.000000"
 preserveAspectRatio="xMidYMid meet">
<metadata>
Created by potrace 1.14, written by Peter Selinger 2001-2017
</metadata>
<g transform="translate(0.000000,3248.000000) scale(0.100000,-0.100000)"
fill="#000000" stroke="none">
<path d="M4284 32462 l-222 -2 -4 -28 c-7 -50 -2 -32111 5 -32119 4 -4 78 -8
165 -10 86 -2 162 -6 169 -8 7 -2 12 -48 15 -137 1 -73 7 -139 11 -145 12 -19
7982 -19 7994 0 4 6 9 1798 11 3982 3 3932 3 3970 23 3990 19 20 35 20 3854
23 l3835 2 0 -3855 0 -3855 179 0 179 0 0 -139 c0 -77 3 -144 6 -150 5 -8
1112 -11 3972 -11 l3964 0 0 3994 0 3994 -24 4 c-13 3 -69 4 -125 3 l-101 -2
0 179 0 178 -3412 1 c-3941 0 -3668 -1 -3668 10 0 4 15 18 33 30 62 44 944
755 1183 953 33 28 81 67 105 87 24 20 76 63 115 95 39 33 88 73 110 91 204
165 1016 852 1154 977 25 23 74 66 110 96 35 30 82 71 105 90 22 19 65 57 95
85 30 27 123 108 205 180 83 71 155 134 161 140 6 5 44 39 85 75 41 36 132
119 204 185 71 66 182 167 245 225 63 58 122 112 130 120 8 9 74 69 145 135
161 148 125 115 311 289 281 264 1170 1160 1339 1350 59 66 204 225 220 241
37 37 160 179 244 280 46 55 94 112 106 126 197 228 512 663 670 924 63 105
197 372 230 458 l25 67 0 4205 c0 3357 -3 4205 -12 4206 -7 0 -51 2 -98 5 -47
2 -100 7 -117 9 l-33 6 0 169 0 170 -3850 0 -3850 0 0 73 c4 587 -11 7548 -15
7562 -11 37 -42 46 -169 51 -66 3 -127 7 -133 9 -10 3 -13 47 -13 175 l0 172
-7822 -4 c-4303 -2 -7923 -4 -8044 -6z m15859 -8404 c3 -24 5 -1759 6 -3855
l1 -3813 -3860 0 -3860 0 0 3832 0 3832 22 23 21 23 3833 0 3832 0 5 -42z"/>
<path d="M14110 6502 c-52 -2 -97 -7 -100 -12 -8 -12 -5 -4229 3 -4236 5 -5
142 -11 309 -13 l47 -1 -4 -123 c-4 -122 3 -158 36 -192 10 -10 4013 -16 4131
-5 40 3 74 12 83 21 25 24 27 216 27 2104 0 1896 -2 2060 -26 2083 -20 21 -95
30 -203 26 l-93 -3 -1 52 c-2 161 -8 289 -13 294 -6 6 -4016 11 -4196 5z"/>
</g>
</svg>
